PathFileType	4	(X/Y/Z)	C:/Users/opensim2020/Desktop/walking_exp_matlab/subject03_walking13_straight_03.trc	
DataRate	CameraRate	NumFrames	NumMarkers	Units	OrigDataRate	OrigDataStartFrame	OrigNumFrames	
100.00	100.00	4	46	mm	100.00	1627	209	
Frame#	Time	LFHD			RFHD			LBHD			RBHD			C7			T10			CLAV			STRN			RBAK			LSHO			LUPA			LELB			LFRM			LWRA			LWRB			LFIN			RSHO			RUPA			RELB			RFRM			RWRA			RWRB			RFIN			LASI			RASI			LPSI			RPSI			LTHI			LKNE			LTIB			LANK			LHEE			LTOE			RTHI			RKNE			RTIB			RANK			RHEE			RTOE			*39			*40			*41			*42			*43			*44			*45			
		X1	Y1	Z1	X2	Y2	Z2	X3	Y3	Z3	X4	Y4	Z4	X5	Y5	Z5	X6	Y6	Z6	X7	Y7	Z7	X8	Y8	Z8	X9	Y9	Z9	X10	Y10	Z10	X11	Y11	Z11	X12	Y12	Z12	X13	Y13	Z13	X14	Y14	Z14	X15	Y15	Z15	X16	Y16	Z16	X17	Y17	Z17	X18	Y18	Z18	X19	Y19	Z19	X20	Y20	Z20	X21	Y21	Z21	X22	Y22	Z22	X23	Y23	Z23	X24	Y24	Z24	X25	Y25	Z25	X26	Y26	Z26	X27	Y27	Z27	X28	Y28	Z28	X29	Y29	Z29	X30	Y30	Z30	X31	Y31	Z31	X32	Y32	Z32	X33	Y33	Z33	X34	Y34	Z34	X35	Y35	Z35	X36	Y36	Z36	X37	Y37	Z37	X38	Y38	Z38	X39	Y39	Z39	X40	Y40	Z40	X41	Y41	Z41	X42	Y42	Z42	X43	Y43	Z43	X44	Y44	Z44	X45	Y45	Z45	X46	Y46	Z46	

1	0.000	-1013.54614	-1189.08423	1589.89075	-883.05426	-1212.92163	1581.80676	-1035.33215	-1307.42969	1527.47302	-905.76996	-1326.43311	1519.72766	-1001.54785	-1327.95520	1375.60010	-1015.90564	-1376.42578	1071.38037	-980.85486	-1202.83667	1301.02869	-989.38666	-1165.48132	1132.74158	-927.00476	-1393.26782	1200.68140	-1139.84094	-1218.89978	1347.29565	-1218.68713	-1186.16260	1158.88342	-1227.57007	-1149.08167	1041.97131	-1200.79736	-1078.60938	937.55884	-1145.72754	-1023.30182	844.30603	-1199.55432	-1029.98438	834.25024	-1172.43701	-977.93616	775.31573	-831.16290	-1281.52222	1320.09937	-767.07166	-1343.47534	1106.81445	-752.91376	-1363.15833	995.03076	-747.46515	-1397.20935	861.96594	-776.26752	-1398.82104	758.71857	-738.47687	-1437.23083	769.12256	-748.78918	-1448.43225	693.63086	-1108.36987	-1228.93225	883.37555	-875.96259	-1242.55432	907.93713	-1069.49426	-1389.02258	930.77795	-923.88660	-1397.66919	945.71790	-1147.52234	-1365.47168	599.92395	-1112.34521	-1428.32642	433.66299	-1129.65332	-1542.49951	272.16727	-1099.86243	-1637.14014	76.02620	-1073.13000	-1687.10730	51.06957	-1062.22290	-1495.45740	28.60062	-820.88232	-1209.78894	633.59552	-866.36536	-1116.51575	483.84479	-865.20569	-1117.07959	290.60886	-915.71631	-1098.48145	75.49950	-969.79443	-1136.35352	37.32263	-932.13287	-956.53058	61.86447	-975.33069	-1288.77185	1632.77295																		 
2	0.010	-1012.99554	-1179.90845	1588.82544	-882.81165	-1203.91687	1580.75671	-1035.14941	-1298.26416	1526.31470	-905.64526	-1317.38843	1518.50549	-1001.15991	-1318.69299	1374.49207	-1017.59442	-1363.49268	1068.38708	-980.66003	-1193.58289	1299.83398	-989.65112	-1156.23291	1131.58325	-926.62579	-1383.95081	1199.60315	-1139.89453	-1210.06152	1346.29529	-1219.26624	-1179.58960	1157.27905	-1227.61975	-1143.50574	1040.02832	-1200.57422	-1073.46606	935.42859	-1145.16479	-1018.52612	842.28247	-1198.83411	-1025.23523	831.94299	-1171.42700	-973.46265	772.94629	-830.96912	-1271.95654	1318.81152	-767.38019	-1333.61279	1105.25500	-753.53394	-1353.28320	993.42401	-748.37823	-1387.37158	860.30896	-777.36102	-1389.07324	757.01294	-739.64703	-1427.26721	767.35638	-750.39526	-1439.55188	692.17444	-1108.52661	-1219.49341	882.55927	-876.33118	-1232.73254	907.20581	-1069.50647	-1379.80811	928.65387	-924.15930	-1388.17078	944.61578	-1147.61560	-1357.26563	598.90955	-1112.67175	-1421.15857	432.68469	-1129.74585	-1537.84631	272.92322	-1099.92432	-1636.54468	78.19984	-1073.15503	-1686.18799	54.81384	-1062.20325	-1494.92310	28.59758	-820.86884	-1199.83569	632.70490	-866.89923	-1106.07654	483.44412	-864.89441	-1107.51318	290.08078	-915.13898	-1090.66833	74.78422	-968.74017	-1128.64246	36.36848	-932.19891	-948.57568	60.45302																					 
3	0.020	-1012.42004	-1170.55823	1587.89124	-882.51721	-1194.76990	1579.68359	-1034.98694	-1289.03674	1525.41858	-905.37445	-1308.28711	1517.47461	-1000.74298	-1309.37952	1373.67139	-1017.61749	-1354.08569	1067.47034	-981.01050	-1184.29614	1298.96692	-989.62390	-1146.71033	1130.73999	-926.06427	-1374.45251	1198.67041	-1139.88843	-1201.09167	1345.40820	-1219.25024	-1172.76379	1155.84863	-1227.73230	-1137.91980	1038.29272	-1200.37964	-1068.47925	933.37262	-1144.63940	-1013.95020	840.07770	-1198.28137	-1020.84552	829.57513	-1170.57300	-969.43683	770.34558	-830.65338	-1262.06567	1317.51721	-767.59143	-1323.39417	1103.78906	-754.03809	-1342.83533	991.81421	-749.29498	-1376.80957	858.67859	-778.47644	-1378.67371	755.46033	-740.72455	-1416.72559	765.65771	-751.98584	-1429.15320	690.52496	-1109.13318	-1210.43811	881.18878	-876.64154	-1222.45544	906.50836	-1069.60083	-1370.27148	927.06085	-924.34320	-1378.20508	943.60217	-1147.58801	-1348.54150	597.98206	-1113.11011	-1413.29724	431.93192	-1129.78137	-1532.76196	273.98340	-1100.08508	-1634.94055	81.26379	-1073.32446	-1684.93396	58.72315	-1062.16248	-1494.80286	28.42217	-820.82617	-1189.63428	631.83801	-866.94635	-1096.22961	482.73401	-864.67377	-1098.97058	289.06296	-914.61401	-1084.10046	73.59771	-968.26874	-1122.65271	35.37448	-932.43781	-942.23956	58.25266	-973.32599	-1270.56787	1630.32703																		 
4	0.030	-1012.76666	-1161.71667	1587.49292	-882.16107	-1185.56128	1578.90820	-1034.70862	-1279.68408	1524.64880	-905.16052	-1298.83838	1516.56567	-1000.28796	-1300.05310	1372.97412	-1016.05762	-1347.98816	1068.33594	-980.56781	-1174.64392	1298.08533	-989.53882	-1136.99829	1130.00708	-925.43250	-1364.79749	1197.87756	-1139.82886	-1192.00684	1344.71680	-1219.32007	-1165.88928	1154.66833	-1227.78955	-1132.41284	1036.59045	-1200.25684	-1063.74573	931.27850	-1144.35266	-1009.63324	837.79102	-1197.91699	-1016.80817	827.10278	-1170.04370	-965.83923	767.50006	-830.15717	-1252.14783	1316.56201	-767.60706	-1312.86426	1102.43506	-754.48895	-1331.99536	990.31451	-750.11230	-1365.58105	857.11615	-779.80042	-1367.45129	753.94989	-741.67377	-1405.37048	764.00812	-753.51880	-1417.82092	688.65570	-1109.49121	-1200.38477	880.20111	-876.81158	-1211.84290	906.05640	-1069.56934	-1360.26526	925.52863	-924.40503	-1367.85938	942.68762	-1147.33716	-1339.33569	597.12738	-1113.28052	-1405.22485	431.27448	-1129.61243	-1527.46753	275.20380	-1100.11011	-1633.86731	83.93295	-1073.09045	-1683.64746	63.36502	-1062.24683	-1494.60486	28.34530	-821.39594	-1179.27686	630.96478	-867.38446	-1086.49695	481.76166	-864.77832	-1091.05103	287.78482	-914.60083	-1078.77051	71.78685	-967.63721	-1118.15723	34.19367	-933.00757	-937.36499	55.19747	-974.29041	-1261.39966	1629.88025																		 
